<?xml version="1.0" encoding="utf-8"?>
<!-- Svg Vector Icons : http://www.onlinewebfonts.com/icon -->
<!DOCTYPE svg PUBLIC "-//W3C//DTD SVG 1.1//EN" "http://www.w3.org/Graphics/SVG/1.1/DTD/svg11.dtd">
<svg version="1.1" xmlns="http://www.w3.org/2000/svg" xmlns:xlink="http://www.w3.org/1999/xlink" x="0px" y="0px" viewBox="0 0 1000 1000" enable-background="new 0 0 1000 1000" xml:space="preserve">
<metadata> Svg Vector Icons : http://www.onlinewebfonts.com/icon </metadata>
<g fill="#f3b700"><path d="M500,10c222.5,0,410.5,85.4,410.5,186.6c0,101.1-188,186.6-410.5,186.6c-222.5,0-410.5-85.4-410.5-186.6C89.5,95.4,277.5,10,500,10z"/><path d="M910.5,803.4c0,101.1-188,186.6-410.5,186.6c-222.5,0-410.5-85.4-410.5-186.6V683.2C154,763.6,311.4,819.1,500,819.1c188.6,0,346-55.5,410.5-135.9V803.4z"/><path d="M910.5,601.1c0,101.1-188,186.6-410.5,186.6c-222.5,0-410.5-85.4-410.5-186.6V481C154,561.4,311.4,616.8,500,616.8S846,561.4,910.5,481V601.1z"/><path d="M910.5,398.9c0,101.1-188,186.6-410.5,186.6c-222.5,0-410.5-85.4-410.5-186.6V278.7C154,359.1,311.4,414.6,500,414.6s346-55.5,410.5-135.9V398.9z"/></g>
</svg>